<?xml version="1.0" encoding="iso-8859-1"?>
<!-- Generator: Adobe Illustrator 19.0.0, SVG Export Plug-In . SVG Version: 6.00 Build 0)  -->
<svg version="1.1" id="Layer_1" xmlns="http://www.w3.org/2000/svg" xmlns:xlink="http://www.w3.org/1999/xlink" x="0px" y="0px"
	 viewBox="0 0 512 512" style="enable-background:new 0 0 512 512;" xml:space="preserve">
<path style="fill:#FEF0D9;" d="M432.446,477.867c0,18.85-15.283,34.133-34.133,34.133h-59.127H65.513
	c-18.85,0-34.133-15.283-34.133-34.133V34.133C31.379,15.283,46.662,0,65.513,0h332.8c18.85,0,34.133,15.283,34.133,34.133v399.189
	V477.867z"/>
<g>
	<path style="fill:#E66032;" d="M56.979,68.267h-25.6c-9.429,0-17.067-7.637-17.067-17.067l0,0c0-9.429,7.637-17.067,17.067-17.067
		h25.6V68.267z"/>
	<path style="fill:#E66032;" d="M56.979,136.533h-25.6c-9.429,0-17.067-7.637-17.067-17.067l0,0c0-9.429,7.637-17.067,17.067-17.067
		h25.6V136.533z"/>
	<path style="fill:#E66032;" d="M56.979,204.8h-25.6c-9.429,0-17.067-7.637-17.067-17.067l0,0c0-9.429,7.637-17.067,17.067-17.067
		h25.6V204.8z"/>
	<path style="fill:#E66032;" d="M56.979,273.067h-25.6c-9.429,0-17.067-7.637-17.067-17.067l0,0c0-9.429,7.637-17.067,17.067-17.067
		h25.6V273.067z"/>
	<path style="fill:#E66032;" d="M56.979,341.333h-25.6c-9.429,0-17.067-7.637-17.067-17.067l0,0c0-9.429,7.637-17.067,17.067-17.067
		h25.6V341.333z"/>
	<path style="fill:#E66032;" d="M56.979,409.6h-25.6c-9.429,0-17.067-7.637-17.067-17.067l0,0c0-9.429,7.637-17.067,17.067-17.067
		h25.6V409.6z"/>
	<path style="fill:#E66032;" d="M56.979,477.867h-25.6c-9.429,0-17.067-7.637-17.067-17.067l0,0c0-9.429,7.637-17.067,17.067-17.067
		h25.6V477.867z"/>
</g>
<g>
	<rect x="312.979" y="469.333" style="fill:#FEE2B3;" width="85.333" height="8.533"/>
	<path style="fill:#FEE2B3;" d="M108.179,51.2v264.533h264.533V51.2H108.179z M125.971,183.467l52.087-52.087l56.354,56.354
		l-52.087,52.087L125.971,183.467z M245.745,74.3l51.055,51.046l-51.524,51.524L245.745,74.3z M236.734,177.988l-52.642-52.642
		l53.129-53.129L236.734,177.988z M236.649,197.572l-0.444,96.119l-47.838-47.838L236.649,197.572z M245.173,198.494l47.36,47.36
		l-47.795,47.795L245.173,198.494z M246.479,187.733l56.354-56.354l52.087,52.079l-56.354,56.354L246.479,187.733z M308.866,125.355
		l21.905-21.905c17.792,19.9,28.988,45.705,30.302,74.112L308.866,125.355z M302.833,119.313L247.11,63.59
		c30.174,1.399,57.463,13.901,77.798,33.647L302.833,119.313z M178.059,119.313l-21.026-21.026
		c19.934-19.857,46.822-32.623,76.621-34.577L178.059,119.313z M151.273,104.602l20.753,20.753l-49.894,49.886
		C123.906,148.292,134.564,123.785,151.273,104.602z M176.292,245.854l-20.634,20.625c-19.081-19.652-31.42-45.781-33.493-74.752
		L176.292,245.854z M182.325,251.887l50.611,50.611c-27.213-1.946-51.891-12.996-71.074-30.148L182.325,251.887z M298.566,251.887
		l21.513,21.513c-19.567,17.041-44.672,27.776-72.243,29.218L298.566,251.887z M304.599,245.854l56.439-56.439
		c-1.741,33.254-17.024,62.908-40.516,83.584l5.606-5.606L304.599,245.854z M364.179,145.263
		c-12.791-41.335-45.978-73.702-87.723-85.53h87.723V145.263z M206.645,59.733c-44.57,12.629-79.283,48.725-89.933,94.08v-94.08
		H206.645z M116.713,212.437c10.863,46.251,46.754,82.833,92.587,94.763h-92.587V212.437z M273.803,307.2
		c42.982-11.187,77.321-44.006,90.377-86.212V307.2H273.803z"/>
</g>
<rect x="277.871" y="263.345" transform="matrix(-0.7071 -0.7071 0.7071 -0.7071 450.8813 747.5838)" style="fill:#E66032;" width="204.798" height="34.133"/>
<rect x="253.757" y="287.489" transform="matrix(-0.7071 -0.7071 0.7071 -0.7071 392.6423 771.7491)" style="fill:#EB805B;" width="204.798" height="34.133"/>
<path style="fill:#FADFD6;" d="M416.48,389.026l22.938,22.938c13.329,13.329,34.944,13.329,48.273,0l0,0
	c13.329-13.329,13.329-34.944,0-48.273l-22.938-22.938L416.48,389.026z"/>
<polygon style="fill:#AD4826;" points="231.802,156.075 256.651,210.953 286.679,180.924 "/>
<polygon style="fill:#FADFD6;" points="319.934,195.934 286.679,180.924 256.651,210.953 271.661,244.207 "/>
<path style="fill:#AD4826;" d="M164.073,383.266l-24.132-24.132c-13.329-13.329-13.329-34.944,0-48.273l6.033-6.033
	c13.329-13.329,34.944-13.329,48.273,0l24.132,24.132L164.073,383.266z"/>
<rect x="172.989" y="361.717" transform="matrix(-0.7071 -0.7071 0.7071 -0.7071 118.5798 849.3498)" style="fill:#E66032;" width="124.415" height="76.799"/>
<g>
</g>
<g>
</g>
<g>
</g>
<g>
</g>
<g>
</g>
<g>
</g>
<g>
</g>
<g>
</g>
<g>
</g>
<g>
</g>
<g>
</g>
<g>
</g>
<g>
</g>
<g>
</g>
<g>
</g>
</svg>
